<?xml version="1.0" encoding="utf-8"?>
<svg version="1.1" xmlns:xlink="http://www.w3.org/1999/xlink" width="30px" height="27px" xmlns="http://www.w3.org/2000/svg">
  <g transform="matrix(1 0 0 1 -14.5 -19.5 )">
    <path d="M 28 20.283018867924525  L 20 25  L 20 14.150943396226415  M 28 20.283018867924525  L 28 4.716981132075471  M 28 20.283018867924525  L 22.684745400638903 11.320754716981131  M 28 4.716981132075471  L 21.830508474576273 0  M 28 4.716981132075471  L 22.684745400638903 11.320754716981131  M 21.830508474576273 0  L 14.23728813559322 8.018867924528301  L 9.396609807418564 3.7735849056603774  M 21.830508474576273 0  L 22.684745400638903 11.320754716981131  M 21.830508474576273 0  L 13.76271186440678 19.81132075471698  M 6.169491525423728 0.9433962264150944  L 0.29014609223705223 4.539512688258908  M 6.169491525423728 0.9433962264150944  L 9.396609807418564 3.7735849056603774  M 6.169491525423728 0.9433962264150944  L 3.7403689238984708 8.558013304224552  M 0 20.283018867924525  L 0 4.716981132075471  L 0.29014609223705223 4.539512688258908  M 0 20.283018867924525  L 9 25  L 9 14.150943396226415  M 0 20.283018867924525  L 3.7403689238984708 8.558013304224552  M 8.542372881355933 14.150943396226415  L 13.76271186440678 19.81132075471698  M 8.542372881355933 14.150943396226415  L 3.7403689238984708 8.558013304224552  M 13.76271186440678 19.81132075471698  L 20.40677966101695 14.150943396226415  M 20.40677966101695 14.150943396226415  L 22.684745400638903 11.320754716981131  M 20.40677966101695 14.150943396226415  L 10.440677966101694 10.377358490566039  M 0.29014609223705223 4.539512688258908  L 3.7403689238984708 8.558013304224552  M 9.396609807418564 3.7735849056603774  L 10.440677966101694 10.377358490566039  M 10.440677966101694 10.377358490566039  L 3.7403689238984708 8.558013304224552  " stroke-width="1.442736268043518" stroke="#ffffff" fill="none" transform="matrix(1 0 0 1 15 20 )" />
  </g>
</svg>